<?xml version="1.0" standalone="no"?>
<!DOCTYPE svg PUBLIC "-//W3C//DTD SVG 20010904//EN"
 "http://www.w3.org/TR/2001/REC-SVG-20010904/DTD/svg10.dtd">
<svg version="1.0" xmlns="http://www.w3.org/2000/svg"
 width="361.000000pt" height="361.000000pt" viewBox="0 0 361.000000 361.000000"
 preserveAspectRatio="xMidYMid meet">
<metadata>
Created by potrace 1.14, written by Peter Selinger 2001-2017
</metadata>
<g transform="translate(0.000000,361.000000) scale(0.100000,-0.100000)"
fill="#000000" stroke="none">
<path d="M1483 3553 c-20 -7 -15 -26 17 -63 16 -19 29 -41 30 -47 0 -7 4 -13
8 -13 5 0 17 -28 28 -62 22 -72 26 -239 8 -279 -7 -13 -20 -44 -30 -69 -23
-58 -100 -177 -136 -212 -15 -15 -28 -29 -28 -32 0 -6 -36 -42 -120 -119 -22
-21 -74 -60 -114 -88 -41 -27 -86 -61 -100 -74 -15 -14 -29 -25 -31 -25 -15 0
-209 -189 -265 -259 -19 -23 -42 -50 -50 -60 -13 -13 -59 -83 -117 -176 -7
-11 -20 -37 -29 -58 -9 -20 -25 -54 -35 -74 -11 -21 -19 -44 -19 -53 0 -9 -5
-21 -11 -27 -6 -6 -15 -29 -20 -50 -10 -47 -27 -112 -45 -177 -20 -70 -19
-368 2 -461 25 -114 44 -189 54 -210 142 -332 320 -543 595 -707 80 -47 165
-90 165 -82 0 3 12 -1 26 -11 30 -20 67 -29 58 -14 -4 7 4 9 22 7 27 -3 29 -1
30 38 2 46 34 102 83 147 17 16 31 35 31 43 0 8 7 14 15 14 8 0 15 5 15 10 0
13 37 50 50 50 6 0 10 7 10 15 0 8 7 15 15 15 8 0 15 7 15 15 0 8 7 15 15 15
8 0 15 7 15 15 0 8 3 15 8 15 5 0 42 50 58 78 1 1 25 -22 55 -53 30 -30 60
-55 67 -55 6 0 12 -4 12 -10 0 -5 8 -18 18 -29 74 -80 107 -111 119 -111 7 0
13 -4 13 -9 0 -5 18 -29 40 -52 22 -24 40 -49 40 -56 0 -7 5 -13 11 -13 5 0 8
-4 5 -9 -3 -5 1 -14 9 -21 8 -7 15 -9 15 -4 0 4 7 -1 15 -12 15 -19 15 -19 9
1 l-6 20 18 -20 c15 -18 16 -18 10 -1 -5 14 -2 17 10 12 8 -3 18 -6 20 -6 3 0
2 -5 -1 -10 -4 -6 5 -5 19 2 14 6 26 15 26 20 0 4 9 8 19 8 11 0 26 7 35 15 8
8 21 15 29 15 8 0 20 6 26 14 7 8 23 17 36 20 14 4 25 11 25 16 0 6 5 10 11
10 6 0 28 14 49 30 21 17 43 30 49 30 6 0 11 4 11 8 0 4 13 15 28 24 15 9 44
32 63 50 20 18 59 54 87 80 29 26 52 49 52 52 0 3 19 25 43 49 51 51 167 201
167 216 0 5 4 11 8 13 9 4 55 80 97 163 143 284 182 636 105 970 -6 28 -15 59
-20 70 -5 11 -12 36 -16 55 -3 19 -10 40 -14 45 -4 6 -11 25 -15 43 -3 17 -11
32 -16 32 -5 0 -9 9 -9 19 0 11 -7 32 -15 48 -7 15 -24 48 -35 73 -58 122
-166 272 -280 389 -25 25 -81 85 -124 134 -76 84 -110 104 -122 73 -5 -13 15
-85 35 -123 5 -10 14 -38 20 -63 7 -25 17 -65 24 -90 22 -83 12 -422 -13 -455
-5 -5 -13 -29 -19 -52 -7 -26 -18 -43 -26 -43 -12 0 -15 18 -15 88 -1 154 -49
417 -91 494 -5 10 -9 25 -9 33 0 15 -30 90 -50 127 -6 10 -10 24 -10 32 0 7
-7 19 -15 26 -8 7 -15 18 -15 25 0 14 -77 139 -104 168 -9 9 -16 20 -16 23 0
11 -233 238 -275 267 -107 77 -159 107 -280 163 -44 20 -82 40 -85 44 -7 9
-62 19 -77 13z m695 -3421 c-11 -13 -10 -15 5 -9 11 4 16 3 12 -3 -3 -6 -1
-10 4 -10 6 0 11 6 11 14 0 8 4 18 10 21 6 4 7 -2 1 -17 -6 -15 -15 -22 -27
-20 -11 2 -37 5 -59 7 -49 3 -48 3 -40 15 4 6 12 7 18 3 18 -11 37 -12 37 -2
0 5 6 8 13 7 6 -2 11 3 9 10 -1 8 2 11 8 7 8 -5 7 -12 -2 -23z m-890 -67 c-3
-3 -9 2 -12 12 -6 14 -5 15 5 6 7 -7 10 -15 7 -18z m57 7 c-3 -3 -11 0 -18 7
-9 10 -8 11 6 5 10 -3 15 -9 12 -12z m-30 -1 c3 -5 2 -12 -3 -15 -5 -3 -9 1
-9 9 0 17 3 19 12 6z"/>
</g>
</svg>
